<svg width="17" height="16" viewBox="0 0 17 16" fill="none" xmlns="http://www.w3.org/2000/svg">
<path d="M8.5 2.66666C9.9 2.66666 11.2333 3.19999 12.2333 4.19999C14.3 6.26666 14.3 9.66666 12.2333 11.7333C11.0333 13 9.36666 13.4667 7.76666 13.2667L8.1 11.9333C9.23333 12.0667 10.4333 11.6667 11.3 10.8C12.8333 9.26666 12.8333 6.73333 11.3 5.13333C10.5667 4.39999 9.5 3.99999 8.5 3.99999V7.06666L5.16667 3.73333L8.5 0.399994V2.66666ZM4.7 11.7333C2.96667 9.99999 2.7 7.33333 3.9 5.26666L4.9 6.26666C4.16667 7.73333 4.43333 9.59999 5.7 10.8C6.03333 11.1333 6.43333 11.4 6.9 11.6L6.5 12.9333C5.83333 12.6667 5.23333 12.2667 4.7 11.7333Z" fill="black"/>
</svg>
