<svg width="20" height="20" viewBox="0 0 20 20" fill="none" xmlns="http://www.w3.org/2000/svg">
<g clip-path="url(#clip0_144_72)">
<path fill-rule="evenodd" clip-rule="evenodd" d="M6.61667 10.8833C6.38258 10.6489 6.2511 10.3312 6.2511 9.99998C6.2511 9.66873 6.38258 9.35102 6.61667 9.11664L11.33 4.40164C11.5645 4.16726 11.8825 4.03563 12.214 4.03571C12.3782 4.03574 12.5408 4.06812 12.6924 4.13098C12.8441 4.19384 12.9819 4.28595 13.0979 4.40206C13.214 4.51817 13.306 4.656 13.3688 4.80769C13.4316 4.95937 13.4639 5.12194 13.4639 5.28611C13.4638 5.45027 13.4314 5.61282 13.3686 5.76448C13.3057 5.91613 13.2136 6.05392 13.0975 6.16998L9.26833 9.99998L13.0983 13.83C13.2178 13.9452 13.3131 14.0831 13.3786 14.2356C13.4442 14.3881 13.4788 14.5521 13.4803 14.718C13.4818 14.884 13.4503 15.0486 13.3875 15.2023C13.3247 15.3559 13.232 15.4955 13.1147 15.613C12.9974 15.7304 12.8578 15.8233 12.7042 15.8862C12.5506 15.9491 12.3861 15.9808 12.2201 15.9795C12.0541 15.9781 11.8901 15.9437 11.7375 15.8782C11.585 15.8128 11.447 15.7176 11.3317 15.5983L6.615 10.8833H6.61667Z" fill="#260F01"/>
</g>
<defs>
<clipPath id="clip0_144_72">
<rect width="20" height="20" fill="white"/>
</clipPath>
</defs>
</svg>
