<svg width="12" height="12" viewBox="0 0 12 12" fill="none" xmlns="http://www.w3.org/2000/svg">
<path d="M6 8C6.82843 8 7.5 7.32843 7.5 6.5C7.5 5.67157 6.82843 5 6 5C5.17157 5 4.5 5.67157 4.5 6.5C4.5 7.32843 5.17157 8 6 8Z" stroke="black"/>
<path d="M4.889 10.5H7.111C8.6715 10.5 9.452 10.5 10.0125 10.1325C10.2543 9.97399 10.4626 9.76944 10.6255 9.5305C11 8.9805 11 8.214 11 6.682C11 5.1495 11 4.3835 10.6255 3.8335C10.4626 3.59456 10.2544 3.39 10.0125 3.2315C9.6525 2.995 9.2015 2.9105 8.511 2.8805C8.1815 2.8805 7.898 2.6355 7.8335 2.318C7.78421 2.08543 7.65613 1.87702 7.47092 1.72798C7.28571 1.57893 7.05473 1.4984 6.817 1.5H5.183C4.689 1.5 4.2635 1.8425 4.1665 2.318C4.102 2.6355 3.8185 2.8805 3.489 2.8805C2.799 2.9105 2.348 2.9955 1.9875 3.2315C1.74581 3.39003 1.53769 3.59459 1.375 3.8335C1 4.3835 1 5.1495 1 6.682C1 8.214 1 8.98 1.3745 9.5305C1.5365 9.7685 1.7445 9.973 1.9875 10.1325C2.548 10.5 3.3285 10.5 4.889 10.5Z" stroke="black"/>
<path d="M9.5 5H9" stroke="black" stroke-linecap="round"/>
</svg>
