<svg width="38" height="37" viewBox="0 0 38 37" fill="none" xmlns="http://www.w3.org/2000/svg">
<path d="M17.0979 1.8541C17.6966 0.0114822 20.3034 0.0114799 20.9021 1.8541L23.9393 11.2016C24.2071 12.0257 24.975 12.5836 25.8414 12.5836H35.67C37.6074 12.5836 38.413 15.0628 36.8456 16.2016L28.8941 21.9787C28.1931 22.488 27.8998 23.3907 28.1675 24.2148L31.2047 33.5623C31.8034 35.4049 29.6945 36.9372 28.127 35.7984L20.1756 30.0213C19.4746 29.512 18.5254 29.512 17.8244 30.0213L9.87295 35.7984C8.30553 36.9372 6.19656 35.4049 6.79527 33.5623L9.83246 24.2148C10.1002 23.3907 9.80689 22.488 9.10592 21.9787L1.15444 16.2016C-0.412985 15.0628 0.392565 12.5836 2.33001 12.5836H12.1586C13.025 12.5836 13.7929 12.0257 14.0607 11.2016L17.0979 1.8541Z" fill="#F29F05"/>
</svg>
